<?xml version="1.0" encoding="UTF-8"?>
<svg xmlns="http://www.w3.org/2000/svg" viewBox="0 0 29.28 28.27">
  <path d="M22.65,12.88c-4.35.33-6.02-1.36-5.71-5.61.06-.75-.02-1.51.02-2.27.11-1.99,1.57-3.49,3.56-3.58,1.43-.07,2.87-.07,4.31,0,2.03.09,3.52,1.62,3.6,3.67.05,1.36.05,2.72,0,4.08-.07,2.15-1.62,3.64-3.79,3.71-.68.02-1.36,0-1.99,0ZM25.88,7.14q0-3.18-3.15-3.18h-.11q-3.1,0-3.1,3.12t3.21,3.24,3.16-3.18Z"/>
  <path d="M3.79,8.48c.06-.83.06-1.43.15-2.03.3-2.11,1.83-3.69,3.91-3.98,1.08-.15,2.18-.19,3.27-.25.83-.05,1.45.32,1.53,1.17.09.92-.52,1.36-1.39,1.44-.94.08-1.88.12-2.82.21-1.23.13-1.81.71-1.93,1.96-.09.9-.14,1.81-.2,2.71-.06.86-.44,1.46-1.37,1.49-.79.02-1.28-.67-1.24-1.69.02-.41.07-.83.09-1.02Z"/>
  <path d="M27.49,20.1c-.03.53-.04,1.06-.1,1.58-.24,2.3-1.89,3.97-4.18,4.22-.97.11-1.96.15-2.94.22-.87.06-1.54-.27-1.62-1.18-.08-.92.53-1.35,1.41-1.41.83-.07,1.66-.11,2.48-.18,1.61-.14,2.14-.66,2.27-2.23.07-.79.13-1.58.17-2.37.05-.91.4-1.56,1.39-1.58.83-.02,1.28.71,1.21,1.81-.02.38-.07.75-.1,1.13Z"/>
  <path d="M13.7,20.53c-.06,3.5-3.1,6.45-6.56,6.37-3.5-.08-6.44-3.14-6.33-6.59.11-3.45,3.07-6.32,6.48-6.29,3.49.03,6.47,3.05,6.41,6.52ZM7.23,24.23c2.21,0,3.81-1.59,3.8-3.8,0-2.22-1.61-3.79-3.84-3.76-2.12.02-3.7,1.6-3.72,3.72-.02,2.23,1.54,3.83,3.76,3.84Z"/>
</svg>