<?xml version="1.0" encoding="UTF-8"?>
<svg xmlns="http://www.w3.org/2000/svg" viewBox="0 0 29.28 28.27">
  <path d="M10.88,19.4c-.27,2.11.38,3.87,1.69,5.39.62.72,1.14,1.48.32,2.24-.9.82-1.66.2-2.31-.55-1.51-1.76-2.3-3.82-2.43-6.1-.05-.8-.23-1.23-1.05-1.56-3.32-1.33-5.08-4.45-4.42-7.6.72-3.46,3.45-5.9,7.07-5.65,3.67.25,6.78-.63,9.56-2.94.58-.48,1.26-.86,1.92-1.24,2.39-1.38,5.35.01,5.41,2.74.13,5.52.13,11.05,0,16.58-.06,2.72-2.98,4.12-5.39,2.74-1.5-.86-3.01-1.74-4.35-2.8-1.79-1.42-3.75-1.6-6.02-1.24ZM24.09,12.4c0-2.38.04-4.76-.03-7.14-.02-.59-.37-1.17-.57-1.75-.55.19-1.15.28-1.63.58-1.55.96-3.6,1.69-4.41,3.11-.77,1.35-.23,3.45-.23,5.22,0,1.77-.56,3.91.23,5.22.9,1.49,3.02,2.26,4.64,3.29,1.36.86,1.96.54,1.98-1.07.03-2.48,0-4.97.01-7.45ZM14.53,8.36c-.21-.07-.35-.15-.49-.15-1.52-.01-3.05-.04-4.57-.01-2.3.04-4.03,1.58-4.26,3.73-.24,2.25,1.14,4.33,3.43,4.63,1.93.25,3.91.05,5.89.05v-8.25Z"/>
</svg>