<?xml version="1.0" encoding="UTF-8"?>
<svg xmlns="http://www.w3.org/2000/svg" viewBox="0 0 29.28 28.27">
  <path d="M14.65,27.73c-2.84,0-5.68.01-8.52,0-3.14-.02-5.08-1.96-5.09-5.11-.02-3.58,0-7.15,0-10.73,0-2.19.86-3.91,2.67-5.15,2.47-1.69,4.93-3.4,7.42-5.05,2.31-1.54,4.68-1.55,6.99-.02,2.49,1.65,4.96,3.36,7.43,5.05,1.8,1.23,2.7,2.94,2.69,5.14-.01,3.58,0,7.15,0,10.73-.01,3.21-1.96,5.13-5.18,5.15-2.8.01-5.6,0-8.4,0ZM10.56,18.78c-2.21-3.52-2.08-6.35.31-8.48,2.05-1.83,5.24-2.01,7.26-.15.92.84,1.66,2.08,2.03,3.28.6,1.94-.13,3.73-1.54,5.32,2.17,1.25,3.11,3.24,3.9,5.34.43,1.15,1.17,1.43,2.06.6.53-.49.96-1.36.98-2.08.1-3.57.04-7.15.05-10.73,0-1.27-.52-2.25-1.56-2.96-2.48-1.69-4.95-3.37-7.43-5.05-1.3-.88-2.62-.91-3.92-.03-2.52,1.7-5.02,3.41-7.53,5.11-.93.63-1.49,1.51-1.5,2.63-.03,3.77-.02,7.54,0,11.31,0,.99.51,1.69,1.43,2.07.77.32,1.29.22,1.6-.69.75-2.2,1.74-4.25,3.85-5.48ZM19.92,25.06c-.76-3.09-2.79-4.85-5.41-4.77-2.56.08-4.53,1.9-5.11,4.77h10.52ZM14.64,17.64c1.66,0,3.03-1.35,3.05-3.01.02-1.68-1.29-3.04-2.98-3.07-1.74-.03-3.12,1.33-3.11,3.06.01,1.67,1.37,3.03,3.03,3.03Z"/>
</svg>