<?xml version="1.0" encoding="UTF-8"?>
<svg xmlns="http://www.w3.org/2000/svg" viewBox="0 0 29.28 28.27">
  <g>
    <path d="M11.49,13.27c0-.76-.02-1.52,0-2.28.06-1.76.85-3.11,2.36-4.02,1.26-.75,2.53-1.49,3.81-2.2,1.59-.88,3.21-.89,4.81-.01,1.31.72,2.6,1.47,3.88,2.24,1.48.9,2.26,2.24,2.31,3.96.04,1.55.04,3.09,0,4.64-.05,1.72-.84,3.07-2.32,3.96-1.26.76-2.53,1.49-3.81,2.21-1.65.91-3.31.9-4.95-.02-1.26-.71-2.51-1.42-3.75-2.17-1.51-.91-2.29-2.27-2.35-4.03-.03-.76,0-1.52,0-2.28ZM13.29,13.28c0,.71,0,1.42,0,2.12,0,1.18.5,2.08,1.51,2.67,1.26.75,2.54,1.47,3.82,2.19.97.54,1.96.54,2.93,0,1.28-.72,2.56-1.45,3.82-2.19,1.01-.6,1.51-1.5,1.51-2.67,0-1.42,0-2.83,0-4.25,0-1.17-.5-2.08-1.51-2.67-1.27-.75-2.54-1.48-3.82-2.19-.94-.53-1.92-.55-2.86-.03-1.33.73-2.65,1.49-3.96,2.28-.95.57-1.42,1.44-1.44,2.55,0,.73,0,1.47,0,2.2Z"/>
    <path d="M23.64,13.27c0,1.94-1.61,3.56-3.55,3.57-1.95,0-3.56-1.6-3.57-3.55,0-1.95,1.6-3.56,3.55-3.57,1.95,0,3.56,1.6,3.57,3.55ZM18.33,13.22c-.03.97.7,1.77,1.67,1.81,1,.04,1.82-.73,1.84-1.73.01-.97-.74-1.75-1.71-1.77-.97-.02-1.76.72-1.8,1.69Z"/>
  </g>
  <path d="M9.64,19.76c1.06.77,2.07,1.49,3.08,2.22.62.45,1.05,1.01.51,1.72-.51.67-1.18.55-1.81.05-.27-.21-.56-.39-.83-.61-1.24-.97-2.26-1.79-4.15-.82-2.18,1.12-4.84-.45-5.67-2.79-.26-.74-.42-1.51.49-1.84.84-.3,1.18.31,1.48,1.02.57,1.36,1.85,1.99,3.12,1.65,1.09-.29,1.88-1.46,1.82-2.66-.07-1.24-.99-2.19-2.34-2.3-.82-.07-1.68-.12-1.57-1.21.11-1.13,1.03-1.07,1.87-.99,3.1.29,4.71,2.88,3.99,6.54Z"/>
</svg>