<?xml version="1.0" encoding="UTF-8"?>
<svg xmlns="http://www.w3.org/2000/svg" viewBox="0 0 29.28 28.27">
  <path d="M28.64,15.91c-.02,5.27-4.51,8.76-9.08,7.55-.72-.19-1.37-.16-2.08.04-.49.14-1.04.22-1.53.14-1.31-.23-2.12-1.51-1.74-2.84.3-1.04.25-1.99.05-3.05-.54-2.95.46-5.41,2.87-7.19,2.33-1.73,4.92-1.93,7.5-.64,2.62,1.32,3.92,3.57,4,5.99ZM27.21,15.93c-.09-1.9-1.13-3.73-3.3-4.78-2.19-1.06-4.33-.79-6.21.74-1.9,1.55-2.56,3.61-1.97,5.99.24.95.29,1.83-.04,2.75-.17.47-.32.97.13,1.4.45.43.93.23,1.4.07.83-.28,1.64-.32,2.5-.06,3.74,1.12,7.47-1.72,7.47-6.11Z"/>
  <path d="M21.36,19.48c-.75,0-1.38-.27-1.85-.86-.28-.35-.35-.74,0-1.06.36-.32.71-.22,1.04.1.58.57,1.04.56,1.66-.02.32-.3.66-.38,1-.09.37.31.32.7.04,1.06-.48.62-1.13.9-1.91.88Z"/>
  <path d="M19.76,14.83c-.09.64-.34.95-.76.84-.26-.07-.59-.4-.64-.66-.08-.41.26-.75.68-.68.29.05.53.36.72.5Z"/>
  <path d="M23.92,15.73c-.64-.07-.89-.31-.88-.75.02-.41.26-.66.67-.67.44,0,.75.28.69.69-.04.29-.35.54-.49.73Z"/>
  <path d="M3.86,5.24c2.07-1.04,4.15-.88,6.03.51,1.93,1.43,2.74,3.41,2.3,5.78-.15.85-.19,1.61.04,2.45.3,1.07-.35,2.1-1.4,2.29-.39.07-.84,0-1.23-.11-.57-.16-1.09-.18-1.67-.03-3.68.98-7.29-1.83-7.3-6.07.07-1.95,1.11-3.76,3.22-4.82ZM7.79,14.98c.7-.21,1.35-.18,2.01.05.38.13.77.29,1.13-.06.36-.34.23-.74.1-1.12-.26-.74-.22-1.45-.03-2.21.47-1.91-.06-3.57-1.58-4.82-1.51-1.23-3.23-1.45-4.99-.6-1.74.84-2.58,2.31-2.65,3.84,0,3.53,3,5.81,6.01,4.91Z"/>
  <path d="M6.49,12.92c.61,0,1.11-.21,1.49-.69.22-.28.28-.59,0-.85-.29-.26-.57-.18-.84.08-.47.46-.84.45-1.34-.02-.26-.24-.53-.31-.8-.07-.3.25-.26.56-.03.85.39.5.91.72,1.53.71Z"/>
  <path d="M7.77,9.18c.07.51.28.77.61.68.21-.06.47-.32.51-.53.06-.33-.21-.6-.54-.54-.23.04-.43.29-.58.4Z"/>
  <path d="M4.43,9.91c.52-.06.72-.25.71-.61-.01-.33-.21-.53-.54-.54-.35,0-.61.22-.56.55.03.23.28.43.39.59Z"/>
</svg>