<?xml version="1.0" encoding="UTF-8"?>
<svg xmlns="http://www.w3.org/2000/svg" viewBox="0 0 29.28 28.27">
  <path d="M11.49,8.22h6.29c0-.84-.02-1.62,0-2.41.08-3.04,2.32-5.22,5.28-5.16,2.75.06,4.98,2.31,5.03,5.08.05,2.86-2.27,5.21-5.23,5.27-.75.02-1.5,0-2.31,0v6.25c.72,0,1.46,0,2.19,0,2.99.04,5.32,2.29,5.34,5.15.03,2.85-2.3,5.19-5.15,5.2-2.94,0-5.1-2.21-5.15-5.29-.01-.71,0-1.43,0-2.24h-6.29c0,.8.02,1.58,0,2.36-.08,2.99-2.26,5.17-5.16,5.17-2.81,0-5.1-2.27-5.15-5.08-.04-2.87,2.26-5.2,5.23-5.27.75-.02,1.5,0,2.31,0v-6.25c-.71,0-1.45.01-2.19,0-3-.05-5.32-2.29-5.35-5.15-.02-2.86,2.28-5.19,5.15-5.2,2.93,0,5.1,2.21,5.15,5.29.01.71,0,1.43,0,2.28ZM11.57,17.17h6.1v-6.1h-6.1v6.1ZM8.77,20.05c-1.04,0-1.99-.11-2.92.03-1.26.18-2.03,1.34-1.92,2.62.11,1.24,1.15,2.2,2.4,2.21,1.24,0,2.31-.91,2.42-2.18.07-.86.01-1.73.01-2.67ZM20.5,8.21c1.05,0,2.01.11,2.94-.03,1.26-.19,2.03-1.37,1.9-2.63-.13-1.25-1.17-2.19-2.42-2.18-1.25,0-2.3.92-2.4,2.2-.07.86-.01,1.73-.01,2.65ZM8.73,8.21c.02-.38.06-.69.06-1,0-.56.04-1.12-.02-1.67-.14-1.27-1.18-2.18-2.42-2.18-1.25,0-2.29.95-2.4,2.2-.12,1.28.65,2.44,1.92,2.62.92.13,1.88.03,2.87.03ZM20.49,20.01c0,.97-.04,1.77,0,2.55.08,1.35,1.11,2.32,2.4,2.34,1.29.01,2.37-.99,2.45-2.29.08-1.31-.79-2.44-2.12-2.58-.86-.09-1.73-.02-2.73-.02Z"/>
</svg>