<?xml version="1.0" encoding="UTF-8"?>
<svg xmlns="http://www.w3.org/2000/svg" viewBox="0 0 29.28 28.27">
  <path d="M1.97,12.64c0-1.55-.03-3.1,0-4.65.05-2.15,1.07-3.72,3.07-4.51,2.27-.9,4.57-1.71,6.89-2.47,1.85-.61,3.75-.57,5.6.06,2.16.74,4.32,1.51,6.45,2.33,2.14.82,3.28,2.45,3.29,4.72.02,3.06.05,6.12,0,9.18-.06,2.8-1.31,4.98-3.73,6.44-1.69,1.02-3.41,2-5.14,2.95-2.51,1.37-5.05,1.37-7.55,0-1.73-.95-3.45-1.93-5.14-2.95-2.41-1.45-3.64-3.63-3.73-6.44-.05-1.55,0-3.1,0-4.65ZM24.64,12.81c0-1.55,0-3.1,0-4.65,0-1.19-.54-1.98-1.67-2.38-2.05-.72-4.09-1.46-6.14-2.19-1.48-.53-2.96-.52-4.44.02-2.01.72-4.01,1.45-6.03,2.15-1.18.41-1.74,1.21-1.73,2.45.01,2.99,0,5.97,0,8.96,0,1.9.84,3.36,2.48,4.32,1.74,1.02,3.49,2.03,5.26,2.99,1.51.82,3.06.8,4.57-.03,1.73-.95,3.45-1.93,5.16-2.93,1.68-.98,2.53-2.46,2.54-4.41,0-1.43,0-2.87,0-4.3Z"/>
  <path d="M14.55,20.74c-1.14,0-2.28.02-3.42,0-1.51-.03-2.41-.9-2.47-2.4-.04-1.1-.15-2.23.04-3.29.13-.74.58-1.6,1.16-2.04.57-.44.73-.81.74-1.46.05-2.35,1.79-4.06,4.04-4.03,2.2.02,3.91,1.72,3.94,4.01,0,.72.21,1.11.85,1.51,1.59.96,1.66,6.2.12,7.24-.44.3-1.05.42-1.6.46-1.13.07-2.28.02-3.41.02ZM14.59,13.9c-1.1,0-2.19,0-3.29,0-.87,0-1.36.39-1.36,1.29,0,1.02-.01,2.04,0,3.06,0,.78.44,1.19,1.21,1.2,2.31.01,4.61.02,6.92,0,.77,0,1.18-.44,1.19-1.21.01-.98,0-1.96,0-2.95,0-.94-.44-1.39-1.38-1.38-1.1,0-2.19,0-3.29,0ZM11.9,12.51h5.39c.18-1.37-.05-2.51-1.21-3.26-.97-.64-2.02-.64-2.99,0-1.15.75-1.38,1.89-1.2,3.26Z"/>
</svg>