<?xml version="1.0" encoding="UTF-8"?>
<svg xmlns="http://www.w3.org/2000/svg" viewBox="0 0 29.28 28.27">
  <path d="M10.44,22.17c4.2.71,7.36-1.01,10-4.11,1.08-1.26,2.35-2.36,3.52-3.54,1.48-1.49,1.65-2.6.58-3.64-.96-.92-2.24-.71-3.55.6-1.25,1.25-2.57,2.44-3.73,3.76-1.92,2.17-4.42,1.93-6.88,1.72-.34-.03-.92-.8-.86-1.14.07-.46.59-1.06,1.03-1.19.7-.21,1.5-.05,2.26-.08,1.6-.06,2.54-.89,2.51-2.21-.03-1.33-.83-1.99-2.46-2.02-.86-.01-1.72.06-2.58-.02-2.44-.23-4.47.5-6.1,2.35-.23.26-.51.63-.8.67-.58.07-1.44.17-1.71-.15-.28-.33-.24-1.41.07-1.69,1.3-1.16,2.78-2.13,4.16-3.21.46-.36,1.02-.81,1.18-1.32,1.03-3.49,4-5.93,7.49-6.04,3.83-.11,6.88,1.96,8.07,5.59.27.84.71,1.15,1.52,1.36,3.6.94,4.84,5.04,2.32,7.76-2.09,2.25-4.3,4.41-6.54,6.52-1.91,1.81-4.3,2.57-6.9,2.71-.96.05-1.93.09-2.88,0-2.01-.2-3.78.11-5.1,1.84-.55.72-1.39.97-2.11.26-.84-.83-.19-1.46.39-2.18,1.87-2.33,4.23-3.11,7.1-2.59ZM17.86,11.18c.46-.57.71-.95,1.03-1.27,1.82-1.83,1.79-3.16-.15-4.96-.26-.24-.54-.46-.83-.65-3.17-2.03-7.71-.21-8.1,3.36,3.08-.06,6.35-.53,8.05,3.52Z"/>
</svg>