<?xml version="1.0" encoding="UTF-8"?>
<svg xmlns="http://www.w3.org/2000/svg" viewBox="0 0 29.28 28.27">
  <path d="M14.68,1.33c3.84.03,6.99,1.64,9.52,4.41,1.35,1.48,2.53,3.16,3.57,4.88,1.3,2.15,1.33,4.5.17,6.73-1.27,2.46-2.92,4.66-5.07,6.45-5.02,4.18-11.41,4.19-16.44.02-2.15-1.78-3.79-3.99-5.08-6.44-1.06-2.01-1.15-4.17-.14-6.2,1.61-3.22,3.8-6.01,6.91-7.97,2-1.26,4.2-1.87,6.56-1.88ZM18.2,15.64h-7.12c.2,2.72.57,5.26,2.12,7.46.96,1.37,1.92,1.38,2.87.02,1.57-2.22,1.93-4.79,2.13-7.48ZM11.09,12.62h7.09c-.15-2.62-.54-5.11-1.98-7.3-1.05-1.6-2.1-1.59-3.15.04-1.41,2.17-1.79,4.62-1.96,7.26ZM25.83,12.67c-1.58-2.91-3.39-5.33-6.14-7.13.51,2.46.99,4.77,1.48,7.13h4.66ZM9.58,5.57c-2.74,1.76-4.54,4.17-6.04,7.06h4.57c.49-2.38.97-4.65,1.47-7.06ZM21.17,15.57c-.5,2.42-.97,4.7-1.48,7.17,2.72-1.89,4.62-4.21,6.01-7.17h-4.53ZM3.47,15.6c1.55,2.9,3.37,5.31,6.06,7.08-.5-2.43-.98-4.73-1.47-7.08H3.47Z"/>
</svg>