<?xml version="1.0" encoding="UTF-8"?><svg id="Capa_2" xmlns="http://www.w3.org/2000/svg" xmlns:xlink="http://www.w3.org/1999/xlink" viewBox="0 0 39.71 45.27"><defs><style>.cls-1{fill:url(#Degradado_sin_nombre_10-4);}.cls-2{fill:url(#Degradado_sin_nombre_10-3);}.cls-3{fill:url(#Degradado_sin_nombre_10-2);}.cls-4{fill:url(#Degradado_sin_nombre_10);}</style><linearGradient id="Degradado_sin_nombre_10" x1="0" y1="36.3" x2="39.71" y2="36.3" gradientUnits="userSpaceOnUse"><stop offset="0" stop-color="#86cbc8"/><stop offset="1" stop-color="#574293"/></linearGradient><linearGradient id="Degradado_sin_nombre_10-2" x1="14.12" y1="13.61" x2="35.39" y2="13.61" xlink:href="#Degradado_sin_nombre_10"/><linearGradient id="Degradado_sin_nombre_10-3" x1="18.19" y1="10.73" x2="31.32" y2="10.73" xlink:href="#Degradado_sin_nombre_10"/><linearGradient id="Degradado_sin_nombre_10-4" x1="20.91" y1="10.73" x2="28.61" y2="10.73" xlink:href="#Degradado_sin_nombre_10"/></defs><g id="Capa_1-2"><path class="cls-4" d="M25.11,33.86c.5-.17.95-.45,1.4-.71,2.27-1.3,4.53-2.86,6.83-4.08,1.74-.92,4.41-1.91,5.8.11,1.15,1.66.42,3.4-1.07,4.45-4.09,2.88-8.76,5.26-12.91,8.1-1.48.77-2.57.85-4.19.51-3.05-.65-6.12-1.86-9.2-2.49l-1.07.65c.56.99,1.23,2.04.36,3.1-.25.31-2.55,1.65-2.95,1.74-.82.18-1.48-.18-1.96-.84-1.7-3.51-4.07-6.88-5.76-10.37-.45-.94-.67-1.76.19-2.57.27-.26,2.2-1.4,2.55-1.51,1.44-.46,2.11.51,2.69,1.65l6.43-3.75c2.81-1.41,5.76.49,8.49,1.32,1.28.39,3.07.5,3.96,1.53.81.93.82,2.08.4,3.19ZM9.9,39.06c.21.15,1.62-1.15,2.09-.81,3.15.67,6.4,2.01,9.54,2.59,1.34.25,1.98.12,3.16-.52l13.07-8.21c.77-.72.6-2.4-.54-2.61-1.22-.23-2.36.41-3.4.97-2.2,1.18-6.66,4.5-8.79,4.9-1.81.34-5.71-.73-7.52-1.37-1.13-.4-.82-1.54.04-1.51,1.45.21,4.16,1.55,5.53,1.26,1.1-.23,1.14-1.9.19-2.43-.55-.31-2.3-.58-3.05-.81-1.63-.49-4.51-1.91-6.06-1.76-1.36.14-5.6,2.8-6.96,3.67-.13.08-.68.39-.68.48l3.39,6.16ZM7.42,43.69c.3.3,1.15-.32,1.47-.51s1.27-.61,1.16-1.02l-5.92-10.67c-.12-.2-.3-.22-.51-.17-.11.02-1.8,1.01-1.94,1.13-.09.07-.16.15-.21.25l-.02.16,5.98,10.83Z"/><path class="cls-3" d="M23.88,21.02c-.81,1.64-1.46,3.39-2.27,5.03-.15.3-.41,1.02-.7,1.11s-.62.07-.85-.15c-.38-.37-1.34-2.63-1.63-2.72-.91,0-2.09.52-2.95.51-.59,0-.88-.5-.7-1.07l2.64-5.79c-.91-.41-1.71-.79-2.11-1.78-.44-1.09-.1-1.66-.05-2.69.1-2.09-2.15-3.39-.61-5.55.43-.61,1.5-1.34,1.79-1.91.54-1.05.24-2.36,1.28-3.35,1.27-1.2,2.87-.41,4.1-1.11.9-.52,1.43-1.39,2.62-1.53,1.97-.22,2.56,1.6,4.11,1.81,1.15.16,2.13-.11,3.13.73s.88,1.9,1.25,3.01c.44,1.29,1.75,1.67,2.24,2.92.83,2.15-1,3.02-.94,4.79.01.39.16.88.18,1.27.07,1.57-.47,2.45-1.79,3.21l2.03,4.85c.77,2.48-2.91.33-3.65.71-.19.1-1.22,2.1-1.52,2.47-.28.34-.64.5-1.03.23-.93-1.47-1.35-3.26-2.19-4.79-.75-.34-1.61-.61-2.39-.21ZM24.46,1.49c-.68.14-1.65,1.3-2.46,1.6-.92.34-2.53.06-3.2.57-.6.45-.72,2.32-1.19,3.16s-1.68,1.53-1.94,2.22c-.39,1.08.84,2.24,1,3.35.13.93-.16,1.68-.16,2.53,0,1.57,1.84,1.58,2.83,2.33s1.48,2.73,2.68,2.74c.92,0,1.88-.74,3.04-.64s2.53,1.25,3.49.09c.53-.65.82-1.52,1.52-2.1s2.29-.9,2.7-1.54c.51-.8-.08-2.31.05-3.32s1.23-2.22,1.13-3.12-1.55-1.68-2.04-2.49c-.54-.9-.51-2.66-1.22-3.22-.64-.51-2.3-.24-3.25-.61s-1.93-1.78-3-1.56ZM32.9,22.09l-1.66-3.74c-1.23.88-1.49,2.86-3.26,3.01l.99,2.46c.41-.34.96-1.84,1.36-2.03.62-.29,2.38.44,2.57.3ZM22.07,21.45c-.97,0-1.73-.5-2.33-1.23l-1.07-1.6-1.97,4.47c.14.14,2.45-.77,2.72-.09l1.12,1.91,1.52-3.47Z"/><path class="cls-2" d="M24.11,4.05c3.08-.3,6.09,1.69,6.93,4.74,1.95,7.08-6.75,11.75-11.34,6.18-3.36-4.06-.75-10.43,4.41-10.92ZM24.2,5.51c-6.94.75-5.4,11.8,1.63,10.33,6.22-1.3,4.83-11.03-1.63-10.33Z"/><path class="cls-1" d="M22.75,13.1c-.29-.26-1.66-1.58-1.76-1.81-.3-.74.31-1.31.99-1.01.25.11,1.33,1.49,1.48,1.49l4.04-3.71c.81-.43,1.46.41.93,1.13-1.43,1.19-2.74,2.71-4.16,3.88-.72.59-.82.66-1.51.04Z"/></g></svg>