<?xml version="1.0" encoding="UTF-8"?><svg id="Capa_2" xmlns="http://www.w3.org/2000/svg" xmlns:xlink="http://www.w3.org/1999/xlink" viewBox="0 0 48.77 36.14"><defs><style>.cls-1{fill:url(#Degradado_sin_nombre_10);}</style><linearGradient id="Degradado_sin_nombre_10" x1="0" y1="18.07" x2="48.77" y2="18.07" gradientUnits="userSpaceOnUse"><stop offset="0" stop-color="#86cbc8"/><stop offset="1" stop-color="#574293"/></linearGradient></defs><g id="Capa_1-2"><path class="cls-1" d="M0,2.39C.34,1.07,1.24.17,2.61.01h27.47c1.17-.11,2.8,1.27,2.8,2.42v7.08h8.41c.57,0,1.65.79,1.93,1.3,1.53,3.36,3.51,6.64,5.03,9.99.13.3.36.72.4,1.03.17,1.26.13,4.57.01,5.89-.1,1.15-.78,2.16-1.89,2.53,0,1.47-.51,2.87-1.44,3.98h2.61c.06,0,.44.26.51.35.41.52.18,1.32-.46,1.51l-47.01.05c-.51,0-.76-.27-.99-.67v-.57c.12-.2.48-.67.71-.67h6.42c-.89-1.07-1.43-2.4-1.43-3.8-2.31,0-5.02.5-5.7-2.38V2.39ZM30.98,28.53V2.62c0-.18-.43-.65-.66-.67H2.56c-.23.02-.66.49-.66.67v18.3h3.09c.29,0,.66.52.71.81.09.57.09,3.74-.04,4.23-.06.24-.45.66-.67.66H1.9c-.01.93-.16,1.8.99,1.91.99.1,2.12-.09,3.13,0,1.76-5.01,9.01-5.08,10.7,0h14.26ZM42.39,13.32c-.21-.37-.82-1.9-1.28-1.9h-8.22v17.11h2.85c1.59-4.9,8.67-5.07,10.55-.29.13.1.47-.35.47-.43v-4.99h-11.26c-.27,0-.76-.58-.72-.9.18-2.44-.23-5.21,0-7.61.03-.36.31-.99.72-.99h6.89ZM46.19,20.92l-2.9-5.7h-6.61v5.7h9.5ZM3.8,22.82h-1.9v1.9h1.9v-1.9ZM10.91,26.65c-4.75.55-4.16,7.95.83,7.58s4.38-8.18-.83-7.58ZM40.56,26.65c-4.75.55-4.16,7.95.83,7.58s4.38-8.18-.83-7.58ZM15.68,34.23h21.1c-.89-1.07-1.43-2.4-1.43-3.8h-18.19c-.12,1.4-.56,2.73-1.48,3.8Z"/></g></svg>