<?xml version="1.0" encoding="UTF-8"?><svg id="Capa_2" xmlns="http://www.w3.org/2000/svg" xmlns:xlink="http://www.w3.org/1999/xlink" viewBox="0 0 42.75 42.74"><defs><style>.cls-1{fill:url(#Degradado_sin_nombre_10-2);}.cls-2{fill:url(#Degradado_sin_nombre_10);}</style><linearGradient id="Degradado_sin_nombre_10" x1="0" y1="21.37" x2="42.75" y2="21.37" gradientUnits="userSpaceOnUse"><stop offset="0" stop-color="#86cbc8"/><stop offset="1" stop-color="#574293"/></linearGradient><linearGradient id="Degradado_sin_nombre_10-2" x1="16.95" y1="8.06" x2="22.25" y2="8.06" xlink:href="#Degradado_sin_nombre_10"/></defs><g id="Capa_1-2"><path class="cls-2" d="M22.51,15.43l6.84,1.45,3.38-.09c-.1-.64-.33-1.22.38-1.55s3.81-1.14,4.61-1.24c1.21-.15,1.18.69,1.46,1.62,1.29,4.42,2.23,8.95,3.53,13.37.18.59-.11,1.01-.66,1.23-.69.27-3.77,1.1-4.47,1.16-.5.05-.81-.04-1.03-.51l-1.69,1.2c1.06,2.27-.63,4.42-3.06,4.27-.38,1.52-1.73,2.56-3.32,2.37-.17.93-.97,1.88-1.91,2.11-.34.08-.96.02-1.13.12-.12.07-.27.55-.42.73-1.31,1.67-3.25,1.1-4.44-.36h-.15c-1.24,2.32-4.49,1.67-5.02-.82-1.23.15-2.41-.71-2.7-1.89-1.2.36-2.71-.47-3.1-1.65-.18-.56-.09-1.03-.18-1.59-1.5-.49-2.33-2.15-1.64-3.61l-.09-.19-1.33-.66c-.27,0-.4.59-1.22.5-.86-.09-3.48-.85-4.36-1.17-.53-.19-.84-.41-.79-1.04,1.48-4.56,2.24-9.66,3.79-14.16.28-.82.35-1.14,1.33-1.02.65.08,4.09.98,4.59,1.25.94.51.21,1.58.29,1.64,2.55.52,4.8-.53,7.2-1.15l-2.33-1.27C8.13,9.51,12.65-1.31,20.97.13c7.99,1.38,9.03,12.44,1.54,15.3ZM19.15,1.8c-8.71.65-6.86,14.08,1.7,12.33,7.55-1.54,5.93-12.9-1.7-12.33ZM8.22,16.69c-.77-.11-1.85-.65-2.59-.71-.12-.01-.21-.04-.28.08l-3.39,12.62c.79.09,1.84.64,2.58.71.12.01.21.04.28-.08l3.39-12.62ZM37.43,15.95c-.1-.09-2.46.56-2.64.65-.11.05-.19.08-.17.23l3.25,12.4c.03.13.1.17.23.17.18,0,2.14-.52,2.41-.62.09-.03.2-.03.24-.15l-3.32-12.68ZM33.25,18.57c-1.34-.12-2.67.19-4,.09-3.6-.26-9.11-2.91-12.46-.77-1.43.91-3.58,3.52-4.03,5.15-.27.97.99,1.3,1.76,1.13.62-.14,2.86-1.97,3.63-2.42,1.76-1.03,3.5-.86,5.05.47l10.18,8.39.25.05,2.36-1.64-2.73-10.46ZM13.23,18.67c-1.24.21-2.5.09-3.74.01l-2.72,10.52,2.05,1.03c1.64-1.31,3.86-.92,4.53,1.15,1.65-.13,3.2.98,3.13,2.72,1.61.18,2.56,1.55,2.4,3.13.67.11,1.31.63,1.68,1.19.56.85.73,1.24,1.59,1.95.15.13.58.5.73.53.6.1.92-.42.76-.97-.18-.61-2.97-2.58-3.41-3.37-.47-.92.4-1.76,1.23-1.23l3.89,3.72c1.04.36,1.74-.58,1.07-1.49-.91-1.23-2.69-2.49-3.75-3.66-.36-.42-.34-.98.11-1.33.56-.44.99-.06,1.44.3.92.73,3.38,3.73,4.15,3.98,1.51.5,2.17-1.26.97-2.11l-4.59-3.97c-.56-.84.41-1.83,1.25-1.25l5.61,4.82c1.21.7,2.34-.72,1.39-1.76-3.76-2.78-7.22-6.26-10.97-9-.88-.64-1.4-.96-2.52-.54-2.33.86-4.13,4.15-7.13,2.58-2.16-1.13-1.49-3.36-.43-5.03l1.27-1.91ZM10.8,31.21c-.83.04-2.1,1.79-1.04,2.35.94.49,2.21-1.01,1.85-1.85-.09-.23-.56-.51-.82-.49ZM11.49,36.68c.34.31.79.28,1.17.03.16-.11,1.89-2.07,1.95-2.22.38-.92-.49-1.66-1.27-1.17-.2.12-2.02,2.16-2.07,2.31-.09.31-.03.82.22,1.04ZM15.91,35.9c-.2.06-1.45,1.39-1.51,1.62-.25.97.7,1.55,1.43,1.02.13-.1,1.19-1.35,1.23-1.48.2-.76-.39-1.38-1.15-1.15ZM18,38.92c-.19.04-.68.56-.75.71-.38.88.67,1.8,1.51.99s.23-1.93-.76-1.71Z"/><path class="cls-1" d="M19,13.73c-.44-.37-.11-1.19-.26-1.41-.04-.06-.85-.38-1.13-.69-1.04-1.15.11-2.33.99-1.62.18.14.25.37.43.51.84.63,1.85-.36,1.29-1.18-.35-.51-1.12-.38-1.7-.6-2.08-.77-2.19-3.39-.49-4.72.14-.11.58-.26.6-.28.22-.34-.4-1.68,1.01-1.55,1.03.1.59,1.16.83,1.57.06.09.78.43,1.04.74.69.81.68,2.05-.61,1.87-.61-.09-.53-.59-.85-.82-.53-.38-1.34-.15-1.4.56-.11,1.19.95.95,1.73,1.19,1.76.56,2.34,2.9,1.14,4.28-.22.25-.99.65-1.04.73-.15.25.04.94-.31,1.35-.31.35-.92.37-1.27.08Z"/></g></svg>