<?xml version="1.0" encoding="UTF-8"?><svg id="Capa_2" xmlns="http://www.w3.org/2000/svg" viewBox="0 0 60.55 54.71"><defs><style>.cls-1{fill:#7cadbc;}</style></defs><g id="Capa_1-2"><path class="cls-1" d="M60.55,31.74c-9.61,4.25-12.58,7.7-16.24,18.86-3.66-11.16-6.63-14.61-16.24-18.86,9.61-4.25,12.58-7.7,16.24-18.86,3.66,11.16,6.63,14.61,16.24,18.86Z"/><path class="cls-1" d="M28.07,8.15c-4.15,1.84-5.43,3.33-7.02,8.15-1.58-4.82-2.87-6.31-7.02-8.15,4.15-1.84,5.43-3.33,7.02-8.15,1.58,4.82,2.87,6.31,7.02,8.15Z"/><path class="cls-1" d="M14.04,46.56c-4.15,1.84-5.43,3.33-7.02,8.15-1.58-4.82-2.87-6.31-7.02-8.15,4.15-1.84,5.43-3.33,7.02-8.15,1.58,4.82,2.87,6.31,7.02,8.15Z"/></g></svg>