<?xml version="1.0" encoding="UTF-8"?><svg id="Capa_2" xmlns="http://www.w3.org/2000/svg" viewBox="0 0 36.23 35.12"><defs><style>.cls-1{fill:#7cadbc;}</style></defs><g id="Capa_1-2"><path class="cls-1" d="M18.14,0c.37,1.27.57,2.53.7,3.8.13,1.27.19,2.53.19,3.8,0,1.27-.06,2.53-.2,3.8-.14,1.27-.34,2.53-.72,3.8-.38-1.27-.57-2.53-.71-3.8-.13-1.27-.19-2.53-.19-3.8,0-1.27.07-2.53.2-3.8.14-1.27.34-2.53.72-3.8Z"/><path class="cls-1" d="M18.09,35.12c-.37-1.27-.57-2.53-.7-3.8-.13-1.27-.19-2.53-.19-3.8,0-1.27.06-2.53.2-3.8.14-1.27.34-2.53.72-3.8.38,1.27.57,2.53.71,3.8.13,1.27.19,2.53.19,3.8,0,1.27-.07,2.53-.2,3.8-.14,1.27-.34,2.53-.72,3.8Z"/><path class="cls-1" d="M0,17.53c1.31-.37,2.61-.57,3.92-.7,1.31-.13,2.61-.19,3.92-.19,1.31,0,2.61.06,3.92.2,1.31.14,2.61.34,3.92.72-1.31.38-2.61.57-3.92.71-1.31.13-2.61.19-3.92.19-1.31,0-2.61-.07-3.92-.2-1.31-.14-2.61-.34-3.92-.72Z"/><path class="cls-1" d="M36.23,17.59c-1.31.37-2.61.57-3.92.7-1.31.13-2.61.19-3.92.19-1.31,0-2.61-.06-3.92-.2-1.31-.14-2.61-.34-3.92-.72,1.31-.38,2.61-.57,3.92-.71,1.31-.13,2.61-.19,3.92-.19,1.31,0,2.61.07,3.92.2,1.31.14,2.61.34,3.92.72Z"/></g></svg>