<?xml version="1.0" encoding="UTF-8"?><svg id="Capa_2" xmlns="http://www.w3.org/2000/svg" xmlns:xlink="http://www.w3.org/1999/xlink" viewBox="0 0 45.17 32.75"><defs><style>.cls-1{fill:url(#Degradado_sin_nombre_10);}</style><linearGradient id="Degradado_sin_nombre_10" x1="0" y1="16.38" x2="45.17" y2="16.38" gradientUnits="userSpaceOnUse"><stop offset="0" stop-color="#86cbc8"/><stop offset="1" stop-color="#574293"/></linearGradient></defs><g id="Capa_1-2"><path class="cls-1" d="M1.2,21.01c-1.3-.22-1.31-1.65-1.1-2.66.53-2.41,2.44-4.43,4.66-5.41-3.91-3.22-.75-9.51,4.18-8.19,3.68.98,4.65,5.81,1.69,8.19,1.37.63,2.6,1.54,3.47,2.78,1.35-1.24,2.97-2.23,4.74-2.74-1.81-1.35-3.15-3.2-3.32-5.52-.71-9.84,14.55-10.02,14.08-.19-.12,2.41-1.46,4.32-3.33,5.71,1.78.51,3.39,1.49,4.74,2.74.86-1.25,2.1-2.15,3.47-2.78-2.94-2.36-2.02-7.12,1.61-8.17,4.94-1.42,8.21,4.93,4.26,8.17,1.28.61,2.45,1.43,3.31,2.56.78,1.02,1.68,2.99,1.48,4.28-.07.45-.78,1.23-1.22,1.23h-9.43c.34,1.54.79,3.34.58,4.93-.07.51-.7,1.33-1.21,1.33h-6.7l.79,4.64c.02.65-.58,1.01-1.15.75l-4.19-2.17c-.24-.02-1.13.49-1.41.63-.61.31-2.79,1.64-3.27,1.62s-.8-.45-.74-.93l.78-4.55h-6.7c-.52,0-1.14-.82-1.21-1.33-.21-1.58.23-3.4.58-4.93H1.2ZM21.96,1.49c-7.51.8-5.67,12.49,1.88,10.78,6.5-1.47,4.98-11.51-1.88-10.78ZM7.19,6.18c-3.82.56-3.28,6.59.84,6.22s3.47-6.84-.84-6.22ZM36.91,6.18c-3.82.56-3.28,6.59.84,6.22s3.47-6.84-.84-6.22ZM1.54,19.45h9.73c.28-.39.47-.83.73-1.22.22-.33.79-.97.91-1.25.14-.31-.89-1.31-1.15-1.53-3.78-3.19-9.72-.91-10.21,4.01ZM33.51,25.7c.27-4.64-2.34-9.02-6.61-10.84-7.62-3.25-15.77,2.68-15.29,10.84h4.89c-.39-.65-2.11-1.8-2.16-2.49,0-.14.03-.36.1-.47.38-.6,4.46-.67,5.28-1l2.07-4.19c.4-.65,1.14-.65,1.53,0l2.07,4.19,4.98.79c.22.15.4.4.4.68,0,.63-1.8,1.88-2.16,2.49h4.89ZM43.58,19.45c-.47-4.26-5.01-6.67-8.9-4.84-.8.38-2,1.3-2.43,2.07-.07.12-.1.16-.04.3.12.28.69.92.91,1.25.26.4.45.84.73,1.22h9.73ZM22.66,19.64c-.23-.05-.16.03-.22.13-.44.68-1.2,3-1.74,3.34-.57.36-3.62.45-3.81.64l2.72,2.91-.57,3.84,3.48-1.76,3.56,1.76-.57-3.84,2.72-2.91c-.19-.19-3.24-.28-3.81-.64s-1.37-2.78-1.76-3.47Z"/></g></svg>