<?xml version="1.0" encoding="UTF-8"?><svg id="Capa_2" xmlns="http://www.w3.org/2000/svg" xmlns:xlink="http://www.w3.org/1999/xlink" viewBox="0 0 46.94 35.49"><defs><style>.cls-1{fill:url(#Degradado_sin_nombre_10);}</style><linearGradient id="Degradado_sin_nombre_10" x1="0" y1="17.74" x2="46.94" y2="17.74" gradientUnits="userSpaceOnUse"><stop offset="0" stop-color="#86cbc8"/><stop offset="1" stop-color="#574293"/></linearGradient></defs><g id="Capa_1-2"><path class="cls-1" d="M.08,21.89c.09-.82.54-1.94.97-2.65.99-1.64,2.51-2.61,4.34-3.09V2.5c.06-.61.41-1.02.98-1.22l16.32.02c1.21.45,1.23,2.14,0,2.57-.55.19-1.01.07-1.51.14-.14.02-.15-.05-.14.14l3.25,11.96h4.35V1.13c0-.39.7-1.07,1.14-1.06,1.87.17,4.12-.22,5.95,0,.65.08,1.14.68,1.15,1.33v25.49c.34.96.72,1.93.64,2.98l8.44.02c1.7.7,1.03,2.78-.71,2.73h-8.5c-1.87,3.13-6.27,3.87-8.98,1.37-.46-.43-.74-.99-1.19-1.37h-14.63c-1.29,3.87-6.62,3.78-7.92-.05-2.02-.12-3.54-1.57-3.94-3.53.18-2.28-.24-4.92,0-7.15ZM34.12,2.82h-2.75v21.08h1.33c.31,0,1.07.4,1.42.46V2.82ZM18.19,4.01h-10.07v17.32h13.73v-3.62l-3.66-13.7ZM28.63,18.86h-4.03v4.08c0,.62-1.03,1.18-1.6,1.14-5.17-.27-10.7.36-15.83,0-.57-.04-1.2-.14-1.55-.65-.05-.07-.23-.46-.23-.5v-3.9c-1.32.42-2.41,1.8-2.55,3.17-.21,2.02.13,4.35,0,6.4-.03.53.89,1.41,1.37,1.11.06-.04.52-.87.68-1.06,1.65-1.92,4.8-1.86,6.36.14.23.29.47.99.78,1.05h13.86c-.09-2.11,1.04-4.01,2.74-5.18v-5.82ZM31.08,26.68c-3.22.47-3.21,5.53,0,6,4.85.71,4.86-6.71,0-6ZM7.55,30.06c-.24.05-.71.52-.8.75-.64,1.63,1.59,2.64,2.4,1.31.71-1.16-.29-2.36-1.6-2.06Z"/></g></svg>