<?xml version="1.0" encoding="UTF-8"?><svg id="Capa_2" xmlns="http://www.w3.org/2000/svg" xmlns:xlink="http://www.w3.org/1999/xlink" viewBox="0 0 41.93 41.91"><defs><style>.cls-1{fill:url(#Degradado_sin_nombre_10-2);}.cls-2{fill:url(#Degradado_sin_nombre_10);}</style><linearGradient id="Degradado_sin_nombre_10" x1="0" y1="25.33" x2="41.93" y2="25.33" gradientUnits="userSpaceOnUse"><stop offset="0" stop-color="#86cbc8"/><stop offset="1" stop-color="#574293"/></linearGradient><linearGradient id="Degradado_sin_nombre_10-2" x1="12.27" y1="9.13" x2="29.69" y2="9.13" xlink:href="#Degradado_sin_nombre_10"/></defs><g id="Capa_1-2"><path class="cls-2" d="M41.93,26.57c-.21,1.07-.56,2.01-1.27,2.86l-8.09,8.09c-.12,1.76.44,4.03-1.96,4.33-2.92-.15-6.01.18-8.91,0-.68-.04-.7-.04-1.38,0-2.98.19-6.19-.12-9.2-.04-2.19-.53-1.46-2.7-1.71-4.34L1.35,29.43c-.74-.87-1.13-1.93-1.27-3.06.21-4.51-.27-9.25,0-13.73.31-5.25,7.17-5.03,7.53-.33.15,1.96-.12,4.11,0,6.09,2.7-.1,4.19,2.76,6.05,4.29.85.06,1.78-.16,2.65-.03,2.03.3,3.29,2.44,4.74,3.66,1.41-1.26,2.67-3.36,4.68-3.66.86-.13,1.8.09,2.65.03,1.86-1.52,3.35-4.38,6.05-4.29.13-2.02-.18-4.25.01-6.24.43-4.56,7.07-4.55,7.51.11v14.29ZM11.94,36.82c.12.74-.09,1.79,0,2.57h7.85v-9.76c0-.43-.51-1.47-.78-1.83-.36-.47-1.94-2.08-2.41-2.41-.86-.61-2.09-.14-3.06-.21-1.86-.14-3.51-2.98-4.94-4.04-1.06-.78-2.29.25-1.82,1.41,1.61,1.84,3.6,3.37,5.07,5.31.46,1.16-.83,2.12-1.86,1.45-2.21-2.83-8.05-5.62-4.83-9.8-.21-2.23.29-5.02,0-7.18-.23-1.7-2.68-1.38-2.61.32.26,4.38-.34,9.15,0,13.48.06.73.32,1.28.78,1.84l8.34,8.33c.1.12.26.4.28.53ZM30.08,39.4v-2.57c0-.08.2-.45.28-.53l8.34-8.33c.46-.56.72-1.11.78-1.84.34-4.33-.26-9.1,0-13.48.07-1.7-2.38-2.02-2.61-.32-.3,2.16.21,4.95,0,7.18,1.19,1.54,1.3,3.42.04,4.94-1.39,1.68-3.41,3.19-4.87,4.85-1.36.77-2.59-.71-1.58-1.91l4.79-4.85c.48-1.16-.76-2.19-1.82-1.41-1.45,1.07-3.07,3.9-4.94,4.04-.97.07-2.2-.4-3.06.21-.47.33-2.05,1.93-2.41,2.41-.28.36-.78,1.4-.78,1.83v9.76h7.85Z"/><path class="cls-1" d="M21.66.03c3.03.36,4.9,3.59,4.03,6.43-.13.44-.41.82-.51,1.24,1.72.52,2.9,1.86,3.45,3.53.37,1.14.78,2.8,1,3.98.3,1.56-.46,2.82-2.12,2.94-4.24.32-8.88-.24-13.16,0-1.07-.09-1.99-1.02-2.08-2.09-.05-.66.82-3.9,1.08-4.7.55-1.74,1.7-3.11,3.49-3.66-.11-.42-.38-.8-.51-1.24C15.45,3.62,17.32.39,20.35.03c.3-.04,1.01-.04,1.31,0ZM20.66,2.5c-3.12.41-2.66,5.33.79,4.87,2.97-.39,2.53-5.31-.79-4.87ZM27.22,15.71c-.84-2.51-.44-5.66-3.88-5.88-1.24-.08-4.49-.15-5.59.14-2.47.66-2.25,3.78-2.96,5.74h12.42Z"/></g></svg>