<?xml version="1.0" encoding="UTF-8"?><svg id="Capa_2" xmlns="http://www.w3.org/2000/svg" xmlns:xlink="http://www.w3.org/1999/xlink" viewBox="0 0 56.45 14.25"><defs><style>.cls-1{fill:url(#Degradado_sin_nombre_10);}</style><linearGradient id="Degradado_sin_nombre_10" x1="0" y1="7.12" x2="56.45" y2="7.12" gradientUnits="userSpaceOnUse"><stop offset="0" stop-color="#86cbc8"/><stop offset="1" stop-color="#574293"/></linearGradient></defs><g id="Capa_1-2"><path class="cls-1" d="M0,1.26C.21.69.6.4,1.16.2c11.22-.21,22.54-.21,33.76,0,.53.09,1.16.79,1.16,1.3v6.56h1.73l.15-.15V1.21c.5-.65.76-1.03,1.64-1.12,1.41-.15,5.2-.17,6.36.52s1.11,1.06,1.47,2.16c.03.08.32.14.19.47,1.04.01,2.12.19,2.82,1.02.29.35.66,1.12.95,1.57.12.18.19.45.28.65,1.21.21,4.23-.58,4.65,1.02.15.59.14,3.11.07,3.78-.11.97-.96,1.32-1.83,1.43-.24.03-.9-.06-1.02.02-.03.02-.17.45-.32.62-1.49,1.72-4.77.88-4.63-1.57.15-2.59,4.14-2.86,5.03-.59l1.09.05v-3.25h-7.05c-.39,0-1.24-.36-1.48-.69-.05-.07-.25-.5-.25-.54v-1.87l-.15-.15h-1.73v6.51h2.12s.43.34.45.36c.33.54-.23.91-.69,1.07l-8.22.04c-1.29,2.71-5.8,1.63-4.9-1.57h-1.38l.2.16c.25,1.19-.46,2.42-1.62,2.8-2.56.84-4.83-1.9-2.77-3.85.1-.09,1.02-.59,1.08-.59h6.01l.15-.15V1.7l-.15-.15H1.68v7.94l.15.15h22.28c.4,0,.68.96.2,1.29-.06.04-.45.19-.5.19h-9.02c.74,2.38-2.11,3.91-4.03,2.7-.48-.3-1.1-1.3-1.1-1.87,0-.3.11-.55.11-.84h-1.13c.05.7.14,1.53-.34,2.12-.15.18-.73.62-.95.73-1.96.96-4.33-.63-3.69-2.85H1.63c-.6,0-1.43-.6-1.63-1.18V1.26ZM44.22,1.55c-1.41-.17-3.14.13-4.58,0v1.68h6.31c.05-.88-.92-1.58-1.73-1.68ZM39.64,8.06h2.61l.15-.15v-3.06l-.15-.15h-2.61v3.35ZM47.62,4.71v1.63l.15.15h2.02c-.08-.31-.72-1.45-.93-1.58-.29-.18-.89-.19-1.24-.19ZM42.4,9.54h-6.31c-.05.23.03.16.13.22.32.2.77.35,1.05.63.2.19.41.76.57.81,1.33-.09,2.94.17,4.23.02.14-.02.25-.01.34-.15v-1.53ZM5.79,11.14c-.78.18-.75,1.43.12,1.62,1.37.29,1.56-2-.12-1.62ZM12,11.14c-.71.14-.89,1.09-.3,1.43,1.6.93,2.26-1.81.3-1.43ZM28.66,11.14c-.69.2-.73,1.61.39,1.62,1.48.02,1.12-2.07-.39-1.62ZM35.96,11.34c-.31-.39-1.36-.31-1.53.24-.26.89.68,1.52,1.4,1,.23-.16.18-.44.46-.53v-.19c-.28-.08-.19-.35-.33-.52ZM50.32,12.37c.74.93,2.26.09,1.59-.95-.52-.81-2.33.02-1.59.95Z"/></g></svg>