<?xml version="1.0" encoding="UTF-8"?>
<svg id="Capa_1" xmlns="http://www.w3.org/2000/svg" viewBox="0 0 94.47 86.9">
  <defs>
    <style>
      .cls-1, .cls-2 {
        opacity: .9;
      }

      .cls-3, .cls-2 {
        fill: #f5f5f5;
      }
    </style>
  </defs>
  <polygon class="cls-2" points="45.37 39.25 42.92 39.25 42.92 41.35 43.48 41.35 45.37 51.38 47.27 41.35 47.82 41.35 47.82 39.25 45.37 39.25"/>
  <polygon class="cls-2" points="37.4 33.68 37.4 34.83 42.92 38.59 47.82 38.59 53.16 35.02 53.16 33.68 37.4 33.68"/>
  <rect class="cls-2" x="36.06" y="31.78" width="18.62" height="1.43"/>
  <g>
    <path class="cls-3" d="M45.28,51.69v9.06s-9.94-2.22-10.05-2.12,1.38-10.16,1.38-10.16c0,0,4.82.37,8.67,3.23Z"/>
    <path class="cls-3" d="M32.76,60.75l1.05-10.21,1.48-1.1-1.38,10.32s8.59,1.37,11.36,1.89l-12.51-.9Z"/>
    <polyline class="cls-3" points="45.14 61.93 31.46 61.78 32.67 51.38 31.66 52.14 30.25 62.91"/>
    <polygon class="cls-2" points="27.39 65.37 29.55 53.7 30.63 52.9 29.18 63.83 45.15 62.33 27.39 65.37"/>
  </g>
  <g class="cls-1">
    <path class="cls-3" d="M73.76,45.19c.11,3.75-.56,7.53-1.95,11.05-.7,1.76-1.57,3.45-2.6,5.04-1.03,1.59-2.23,3.07-3.56,4.43-2.65,2.72-5.87,4.89-9.38,6.37-3.51,1.48-7.32,2.23-11.14,2.24-3.81,0-7.62-.76-11.14-2.24-3.51-1.48-6.73-3.65-9.38-6.37-1.33-1.36-2.53-2.84-3.56-4.43-1.03-1.59-1.9-3.28-2.6-5.04-1.39-3.52-2.06-7.3-1.94-11.05.11,3.75.92,7.45,2.41,10.86,1.47,3.41,3.62,6.51,6.26,9.1,1.32,1.29,2.77,2.45,4.3,3.47,1.54,1.02,3.18,1.88,4.88,2.57,3.41,1.4,7.09,2.12,10.77,2.11,3.68,0,7.36-.71,10.77-2.11,3.41-1.38,6.54-3.46,9.19-6.04,2.64-2.59,4.78-5.69,6.26-9.1,1.49-3.4,2.29-7.11,2.4-10.86Z"/>
  </g>
  <path class="cls-3" d="M46.52,31.33c0,.13-1.83-1.03-2.11-2.27s.28-2.12,2.41-4.1c0,0,3.83-3.38,3-5.37,0,0,1.1.68,1.77,1.7.56.84.54,1.96,0,2.8-.46.71-1.33,1.87-2.65,3.06,0,0-2.39,1.93-2.41,4.18Z"/>
  <path class="cls-3" d="M46.28,24.37c1.31-1.2,2.19-2.35,2.65-3.06.55-.85.56-1.96,0-2.8-.67-1.02-1.77-1.7-1.77-1.7.84,1.98-3,5.37-3,5.37-2.13,1.98-3.25,3.11-2.97,4.36,0,0,.18,2.12,2.92,3.2,0,0-2.31-1.28,2.16-5.36Z"/>
  <path class="cls-3" d="M46.32,18.32c-.6,1.21-1.8,2.38-3.19,3.52,0,0-3.05,2.36-2.84,4.43.01.13-1.58-1.54-1.53-2.67.04-1.06.07-1.84,1.32-3.13.42-.44.92-.79,1.38-1.18,1.07-.9,4.6-3.8,4.49-10.6,0,0,1.92,6.5.38,9.63Z"/>
  <g>
    <path class="cls-3" d="M45.46,51.69v9.06s9.94-2.22,10.05-2.12-1.38-10.16-1.38-10.16c0,0-4.82.37-8.67,3.23Z"/>
    <path class="cls-3" d="M57.98,60.75l-1.05-10.21-1.48-1.1,1.38,10.32s-8.59,1.37-11.36,1.89l12.51-.9Z"/>
    <polyline class="cls-3" points="45.6 61.93 59.28 61.78 58.06 51.38 59.08 52.14 60.49 62.91"/>
    <polygon class="cls-2" points="63.35 65.37 61.19 53.7 60.1 52.9 61.56 63.83 45.59 62.33 63.35 65.37"/>
  </g>
</svg>