<?xml version="1.0" encoding="UTF-8"?>
<svg id="Capa_1" xmlns="http://www.w3.org/2000/svg" viewBox="0 0 40 61.62">
  <defs>
    <style>
      .cls-1, .cls-2 {
        fill: #fff;
      }

      .cls-2 {
        opacity: .9;
      }
    </style>
  </defs>
  <polygon class="cls-2" points="20 33.17 17.4 33.17 17.4 35.4 17.99 35.4 20 46.05 22.02 35.4 22.61 35.4 22.61 33.17 20 33.17"/>
  <polygon class="cls-2" points="11.53 27.25 11.53 28.47 17.4 32.46 22.61 32.46 28.28 28.67 28.28 27.25 11.53 27.25"/>
  <rect class="cls-2" x="10.11" y="25.23" width="19.78" height="1.52"/>
  <g>
    <path class="cls-1" d="M19.9,46.39v9.62s-10.56-2.36-10.68-2.25,1.46-10.8,1.46-10.8c0,0,5.12.39,9.22,3.43Z"/>
    <path class="cls-1" d="M6.6,56.02l1.12-10.85,1.57-1.17-1.47,10.97s9.12,1.46,12.08,2.01l-13.3-.96Z"/>
    <polyline class="cls-1" points="19.76 57.27 5.21 57.11 6.51 46.06 5.43 46.87 3.94 58.32"/>
    <polygon class="cls-2" points=".89 60.93 3.19 48.53 4.34 47.67 2.8 59.29 19.76 57.69 .89 60.93"/>
  </g>
  <path class="cls-1" d="M21.22,24.76c0,.14-1.94-1.1-2.24-2.42-.3-1.32.3-2.25,2.56-4.35,0,0,4.07-3.6,3.18-5.7,0,0,1.17.73,1.89,1.81.59.9.58,2.08,0,2.98-.49.76-1.41,1.99-2.82,3.25,0,0-2.54,2.05-2.56,4.44Z"/>
  <path class="cls-1" d="M20.97,17.35c1.4-1.27,2.33-2.49,2.82-3.25.59-.9.6-2.08,0-2.98-.71-1.08-1.89-1.81-1.89-1.81.89,2.11-3.18,5.7-3.18,5.7-2.27,2.11-3.46,3.31-3.16,4.63,0,0,.19,2.25,3.1,3.4,0,0-2.45-1.37,2.3-5.7Z"/>
  <path class="cls-1" d="M21.01,10.93c-.64,1.29-1.92,2.53-3.39,3.74,0,0-3.24,2.51-3.02,4.71.01.14-1.68-1.64-1.63-2.84.05-1.13.08-1.95,1.4-3.33.45-.47.97-.83,1.46-1.25,1.13-.96,4.89-4.03,4.77-11.27,0,0,2.04,6.9.4,10.24Z"/>
  <g>
    <path class="cls-1" d="M20.1,46.39v9.62s10.56-2.36,10.68-2.25-1.46-10.8-1.46-10.8c0,0-5.12.39-9.22,3.43Z"/>
    <path class="cls-1" d="M33.4,56.02l-1.12-10.85-1.57-1.17,1.47,10.97s-9.12,1.46-12.08,2.01l13.3-.96Z"/>
    <polyline class="cls-1" points="20.24 57.27 34.79 57.11 33.49 46.06 34.57 46.87 36.06 58.32"/>
    <polygon class="cls-2" points="39.11 60.93 36.81 48.53 35.66 47.67 37.2 59.29 20.24 57.69 39.11 60.93"/>
  </g>
</svg>